# xmcd
#
# Track frame offsets:
#	150
#	21563
#	39302
#	56124
#	73138
#	86150
#	104401
#	120338
#	136402
#	150493
#	170446
#	189288
#	206641
#	224974
#	241896
#	258824
#	277659
#	289269
#	300206
#	315514
#	335395
#
# Disc length: 4723 seconds
#
# Revision: 0
# Processed by: cddbd v1.5.2PL0 Copyright (c) Steve Scherf et al.
# Submitted via: EZCDAudioConverter 4.0.5.1
#
DISCID=2e127115
DTITLE=Bruno and Marrone - Inevitável (Deluxe Edition)
DYEAR=2004
DGENRE=Sertanejo
TTITLE0=Bruno and Marrone - Será
TTITLE1=Bruno and Marrone - Vai Dar Namoro
TTITLE2=Bruno and Marrone - Deixa
TTITLE3=Bruno and Marrone - É Você Que Eu Amo
TTITLE4=Bruno and Marrone - Pra Lá Que Eu Vou
TTITLE5=Bruno and Marrone - Sonhos Perdidos
TTITLE6=Bruno and Marrone - Trânsito Parado
TTITLE7=Bruno and Marrone Feat. Claudia Leitte - Doce Desejo
TTITLE8=Bruno and Marrone - Apaziguar
TTITLE9=Bruno and Marrone - Se Não Tivesse Ido
TTITLE10=Bruno and Marrone - Você Não Me Ensinou a Te Esquecer
TTITLE11=Bruno and Marrone - Inevitável
TTITLE12=Bruno and Marrone - Coração de Pedra
TTITLE13=Bruno and Marrone - Foi Engano
TTITLE14=Bruno and Marrone - Ligação Urbana (Ao Vivo)
TTITLE15=Bruno and Marrone - Mil Razões Pra Chorar
TTITLE16=Bruno and Marrone - Rei Do Gado
TTITLE17=Bruno and Marrone - Sem Vergonha
TTITLE18=Bruno and Marrone - Tchau Amore
TTITLE19=Bruno and Marrone - Cilada de Amor
TTITLE20=Bruno and Marrone - Agarrada Em Mim
EXTD=
EXTT0=
EXTT1=
EXTT2=
EXTT3=
EXTT4=
EXTT5=
EXTT6=
EXTT7=
EXTT8=
EXTT9=
EXTT10=
EXTT11=
EXTT12=
EXTT13=
EXTT14=
EXTT15=
EXTT16=
EXTT17=
EXTT18=
EXTT19=
EXTT20=
PLAYORDER=
